<svg width="1280" height="640" viewBox="0 0 1280 640" fill="none" xmlns="http://www.w3.org/2000/svg">
  <defs>
    <linearGradient id="bg" x1="88" y1="56" x2="1198" y2="584" gradientUnits="userSpaceOnUse">
      <stop stop-color="#0D0907"/>
      <stop offset="0.55" stop-color="#1A130F"/>
      <stop offset="1" stop-color="#0B0908"/>
    </linearGradient>
    <linearGradient id="panel" x1="760" y1="146" x2="1138" y2="480" gradientUnits="userSpaceOnUse">
      <stop stop-color="#2A2018"/>
      <stop offset="1" stop-color="#17110E"/>
    </linearGradient>
    <linearGradient id="accent" x1="0" y1="0" x2="1" y2="1">
      <stop stop-color="#C89E63"/>
      <stop offset="1" stop-color="#8C6A3F"/>
    </linearGradient>
    <radialGradient id="glow" cx="0" cy="0" r="1" gradientUnits="userSpaceOnUse" gradientTransform="translate(1006 196) rotate(90) scale(280 360)">
      <stop stop-color="#C89E63" stop-opacity="0.16"/>
      <stop offset="1" stop-color="#C89E63" stop-opacity="0"/>
    </radialGradient>
  </defs>

  <rect width="1280" height="640" rx="30" fill="url(#bg)"/>
  <rect x="0" y="0" width="1280" height="640" rx="30" fill="url(#glow)"/>

  <path d="M0 112H1280" stroke="#3A2B20" stroke-opacity="0.9"/>
  <path d="M84 542H680" stroke="#3E2F23"/>
  <path d="M84 566H524" stroke="#2D221B"/>

  <rect x="84" y="78" width="188" height="42" rx="21" fill="#2B2119" stroke="#4B3828"/>
  <circle cx="112" cy="99" r="6" fill="#2AD68F"/>
  <text x="129" y="106" fill="#C89E63" font-family="Arial, sans-serif" font-size="15" font-weight="700" letter-spacing="0.22em">LIVE PRODUCT</text>

  <text x="84" y="222" fill="#F3E6D2" font-family="Georgia, 'Times New Roman', serif" font-size="78" font-weight="700">Modular_OS</text>
  <text x="84" y="286" fill="#F3E6D2" font-family="Georgia, 'Times New Roman', serif" font-size="34">Production control software for</text>
  <text x="84" y="334" fill="#F3E6D2" font-family="Georgia, 'Times New Roman', serif" font-size="34">modular construction teams.</text>

  <text x="84" y="404" fill="#BCA893" font-family="Arial, sans-serif" font-size="24">Flow visibility, blocker tracking, dispatch readiness,</text>
  <text x="84" y="442" fill="#BCA893" font-family="Arial, sans-serif" font-size="24">and factory-floor coordination in one operating layer.</text>

  <rect x="84" y="484" width="166" height="54" rx="27" fill="url(#accent)"/>
  <text x="117" y="518" fill="#0D0907" font-family="Arial, sans-serif" font-size="22" font-weight="800">SHOWCASE</text>

  <rect x="270" y="484" width="198" height="54" rx="27" fill="#1A1410" stroke="#4B3828"/>
  <text x="307" y="518" fill="#E6D8C3" font-family="Arial, sans-serif" font-size="22" font-weight="700">PRIVATE CODEBASE</text>

  <rect x="736" y="146" width="458" height="348" rx="32" fill="url(#panel)" stroke="#4B3828"/>
  <rect x="768" y="180" width="394" height="42" rx="21" fill="#211811" stroke="#3E2F23"/>
  <text x="793" y="206" fill="#C89E63" font-family="Arial, sans-serif" font-size="15" font-weight="700" letter-spacing="0.24em">CORE SURFACES</text>

  <rect x="768" y="248" width="394" height="74" rx="24" fill="#16110D" stroke="#3A2C20"/>
  <text x="796" y="285" fill="#F3E6D2" font-family="Georgia, 'Times New Roman', serif" font-size="26">Operations Overview</text>
  <text x="796" y="309" fill="#A99582" font-family="Arial, sans-serif" font-size="18">Stage health, blockers, readiness</text>

  <rect x="768" y="338" width="188" height="104" rx="24" fill="#201811" stroke="#3A2C20"/>
  <text x="792" y="380" fill="#F3E6D2" font-family="Georgia, 'Times New Roman', serif" font-size="24">Projects</text>
  <text x="792" y="406" fill="#A99582" font-family="Arial, sans-serif" font-size="17">Planning and sequencing</text>

  <rect x="974" y="338" width="188" height="104" rx="24" fill="#201811" stroke="#3A2C20"/>
  <text x="998" y="380" fill="#F3E6D2" font-family="Georgia, 'Times New Roman', serif" font-size="24">Modules</text>
  <text x="998" y="406" fill="#A99582" font-family="Arial, sans-serif" font-size="17">Execution and bottlenecks</text>

  <text x="769" y="470" fill="#8F7B67" font-family="Arial, sans-serif" font-size="18">React | TypeScript | Express | Prisma | Electron</text>
</svg>
